<svg version="1.2" xmlns="http://www.w3.org/2000/svg" viewBox="0 0 3000 2000" width="3000" height="2000">
	<title>-e- BACKGROUND 2</title>
	<defs>
		<clipPath clipPathUnits="userSpaceOnUse" id="cp1">
			<path d="m3001.87 0v2000h-3000v-2000z"/>
		</clipPath>
		<linearGradient id="g1" x2="1" gradientUnits="userSpaceOnUse" gradientTransform="matrix(-1179.993,2827.987,-3334.787,-1391.458,2877.914,299.893)">
			<stop offset="0" stop-color="#00ffed"/>
			<stop offset="1" stop-color="#ae00c9"/>
		</linearGradient>
		<linearGradient id="g2" x2="1" gradientUnits="userSpaceOnUse" gradientTransform="matrix(-734.172,1674.428,-480.103,-210.507,706.916,577.354)">
			<stop offset="0" stop-color="#00ffed" stop-opacity="1"/>
			<stop offset="1" stop-color="#ae00c9" stop-opacity="0"/>
		</linearGradient>
		<linearGradient id="g3" x2="1" gradientUnits="userSpaceOnUse" gradientTransform="matrix(-947.494,2160.951,-4262.785,-1869.067,2213.991,727.583)">
			<stop offset="0" stop-color="#00ffed" stop-opacity="1"/>
			<stop offset="1" stop-color="#ae00c9" stop-opacity="0"/>
		</linearGradient>
		<linearGradient id="g4" x2="1" gradientUnits="userSpaceOnUse" gradientTransform="matrix(-398.878,3956.569,-5453.012,-549.741,1684.835,-1100.59)">
			<stop offset="0" stop-color="#00ffed" stop-opacity="0"/>
			<stop offset="1" stop-color="#ae00c9" stop-opacity="1"/>
		</linearGradient>
		<linearGradient id="g5" x2="1" gradientUnits="userSpaceOnUse" gradientTransform="matrix(-1212.449,-3183.948,2995.905,-1140.842,2635.591,2654.029)">
			<stop offset="0" stop-color="#00ffed"/>
			<stop offset="1" stop-color="#ae00c9"/>
		</linearGradient>
		<linearGradient id="g6" x2="1" gradientUnits="userSpaceOnUse" gradientTransform="matrix(-734.172,-1674.428,480.103,-210.507,706.916,1570.866)">
			<stop offset="0" stop-color="#00ffed" stop-opacity="1"/>
			<stop offset="1" stop-color="#ae00c9" stop-opacity="0"/>
		</linearGradient>
		<linearGradient id="g7" x2="1" gradientUnits="userSpaceOnUse" gradientTransform="matrix(-931.483,-2124.434,3946.048,-1730.19,2304.589,1380.609)">
			<stop offset="0" stop-color="#00ffed" stop-opacity="1"/>
			<stop offset="1" stop-color="#ae00c9" stop-opacity="0"/>
		</linearGradient>
		<linearGradient id="g8" x2="1" gradientUnits="userSpaceOnUse" gradientTransform="matrix(764.756,-2684.964,1403.996,399.899,1039.942,2156.52)">
			<stop offset="0" stop-color="#00ffed" stop-opacity="0"/>
			<stop offset="1" stop-color="#ae00c9" stop-opacity="1"/>
		</linearGradient>
		<linearGradient id="g9" x2="1" gradientUnits="userSpaceOnUse" gradientTransform="matrix(769.006,-2699.886,1727.415,492.018,1367.462,2072.42)">
			<stop offset="0" stop-color="#00ffed" stop-opacity="0"/>
			<stop offset="1" stop-color="#ae00c9" stop-opacity="1"/>
		</linearGradient>
		<linearGradient id="g10" x2="1" gradientUnits="userSpaceOnUse" gradientTransform="matrix(-1863.139,-2520.086,2458.291,-1817.453,345.039,2524.83)">
			<stop offset="0" stop-color="#00ffed"/>
			<stop offset="1" stop-color="#ae00c9"/>
		</linearGradient>
		<linearGradient id="g11" x2="1" gradientUnits="userSpaceOnUse" gradientTransform="matrix(-2293.452,-3102.128,3100.017,-2291.891,429.864,2942.459)">
			<stop offset="0" stop-color="#00ffed" stop-opacity="1"/>
			<stop offset="1" stop-color="#ae00c9" stop-opacity="0"/>
		</linearGradient>
		<linearGradient id="g12" x2="1" gradientUnits="userSpaceOnUse" gradientTransform="matrix(-300.289,684.871,-684.87,-300.289,951.54,1159.006)">
			<stop offset="0" stop-color="#00ffed" stop-opacity="1"/>
			<stop offset="1" stop-color="#ae00c9" stop-opacity="0"/>
		</linearGradient>
		<linearGradient id="g13" x2="1" gradientUnits="userSpaceOnUse" gradientTransform="matrix(31.422,-237.907,237.907,31.422,1977.405,312.811)">
			<stop offset="0" stop-color="#00ffed" stop-opacity="1"/>
			<stop offset="1" stop-color="#ae00c9" stop-opacity="0"/>
		</linearGradient>
		<linearGradient id="g14" x2="1" gradientUnits="userSpaceOnUse" gradientTransform="matrix(84.411,-64.716,64.716,84.412,2058.939,1311.838)">
			<stop offset="0" stop-color="#00ffed" stop-opacity="1"/>
			<stop offset="1" stop-color="#ae00c9" stop-opacity="0"/>
		</linearGradient>
	</defs>
	<style>
		.s0 { fill: url(#g1) } 
		.s1 { fill: url(#g2) } 
		.s2 { fill: url(#g3) } 
		.s3 { fill: url(#g4) } 
		.s4 { fill: url(#g5) } 
		.s5 { fill: url(#g6) } 
		.s6 { fill: url(#g7) } 
		.s7 { fill: url(#g8) } 
		.s8 { fill: url(#g9) } 
		.s9 { fill: url(#g10) } 
		.s10 { fill: url(#g11) } 
		.s11 { fill: url(#g12) } 
		.s12 { fill: url(#g13) } 
		.s13 { fill: url(#g14) } 
	</style>
	<g id="-e- BACKGROUND 2">
		<g id="&lt;Clip Group&gt;" clip-path="url(#cp1)">
			<path id="&lt;Path&gt;" class="s0" d="m3001.9 0v2000h-3000v-2000z"/>
			<g id="&lt;Group&gt;">
				<path id="&lt;Path&gt;" class="s1" d="m-9.7 1068.9v20.1l17.6-130.4c-10.6 35.9-16.3 73-17.6 110.3z"/>
			</g>
			<g id="&lt;Group&gt;">
				<path id="&lt;Path&gt;" class="s2" d="m2975.7 1625.5c-35.5 20.5-65 51.4-103.2 66.2-51.1 19.8-113.7 5-150.6-35.5-54.5-59.8-52.8-162.6-120.7-206.4-72.4-46.8-166.5 7.1-231.8 63.3-65.3 56.2-145.9 121.2-227.7 94.1-87.9-29-111-142.7-177.8-206.9-73.4-70.5-193.4-70.8-286-28.5-92.5 42.3-164.3 118.7-234.4 192.5-70 73.8-143.9 148.9-238.3 186.9-94.3 38.1-215.3 29.4-282-47.5-48.4-55.7-63.8-139.9-126.1-179.6-74.7-47.5-170.8-6-257.5 12-154 32-323-22.3-429.5-138-73.8-80.1-115.7-187.6-119.8-296.3v918.5h3035.9v-412c-17.6 2.1-35.4 8.5-50.5 17.2z"/>
			</g>
			<g id="&lt;Group&gt;">
				<path id="&lt;Path&gt;" class="s3" d="m1432.6 1861.4c-13.9 69.7-44.9 121.2-86.8 158.9h1474.7c27.3-161.4 14.1-314.7-111.5-356.5-125.4-41.8-266.1 32.1-386.9 76.5-221.9 81.7-373.1-42-467.2-136.2-222.9-223.3-127-612.9-335.9-840.1-237.9-258.6-543.9-40-450.5 285.5 73.2 255 421.5 524.9 364.1 811.9z"/>
			</g>
			<g id="&lt;Group&gt;">
				<path id="&lt;Path&gt;" class="s4" d="m1046.8 1397.1c196.8 236.9 497.8 350.7 697.7 584.6 10.5 12.3 20.8 25.2 30.6 38.6h1029.8c6.9-42 8.5-84.1 1.5-125.5-6.2-37.3-20.2-74-46.5-98.3-44.9-41.4-113.3-37-174.1-26.1-102.4 18.4-204.5 49.2-307.3 49.6-197.2 0.6-376.8-113.5-502.3-268.8-90.9-112.4-157.5-245.8-245.1-361.2-87.6-115.4-204.5-216-345.8-230-66.1-6.5-139.9 9.5-187.7 63-46.6 52.1-59.2 131-44.8 198.4 14.3 67.4 51.9 125 94 175.7z"/>
			</g>
			<g id="&lt;Group&gt;">
				<path id="&lt;Path&gt;" class="s5" d="m-9.7 1059.2v20.1c1.3 37.3 7 74.4 17.6 110.3z"/>
			</g>
			<g id="&lt;Group&gt;">
				<path id="&lt;Path&gt;" class="s6" d="m-9.7-13.6v1060c4.1-108.6 46-216.2 119.8-296.3 106.5-115.7 275.5-170 429.5-138 86.7 18 182.8 59.6 257.5 12 62.3-39.6 77.7-123.8 126.1-179.6 66.7-76.9 187.7-85.6 282-47.5 94.4 38.1 168.3 113.1 238.3 186.9 70.1 73.8 141.9 150.2 234.4 192.5 92.6 42.3 212.6 42 286-28.5 66.8-64.2 89.9-177.8 177.8-206.9 81.8-27 162.4 37.9 227.7 94.1 65.3 56.2 159.4 110.1 231.8 63.3 67.9-43.8 66.2-146.6 120.7-206.4 36.9-40.5 99.5-55.3 150.6-35.5 38.2 14.8 67.7 45.7 103.2 66.2 15.1 8.8 32.9 15.1 50.5 17.2v-553.5z"/>
			</g>
			<g id="&lt;Group&gt;">
				<path id="&lt;Path&gt;" class="s7" d="m3026.2-13.6h-238.7c83.1 59.8 136.2 141.7 116.2 256.7-45.4 261.3-463.5 381.1-619.6 574.4-199.4 246.7 10.9 527.7 322 382.9 201.7-93.8 279-314.5 420.1-471.8z"/>
			</g>
			<g id="&lt;Group&gt;">
				<path id="&lt;Path&gt;" class="s8" d="m3026.2-13.6h-186.4c0.4 16.9-0.9 34.5-4.1 53-45.4 261.3-463.5 381.1-619.6 574.4-199.4 246.7 10.9 527.7 322 382.9 231.8-107.8 299.2-383.1 488.1-537.3z"/>
			</g>
			<g id="&lt;Group&gt;">
				<path id="&lt;Path&gt;" class="s9" d="m1638.9 294c-67.3-38.4-143.6-70.9-205.9-112.4-62.3-41.5-111-95.2-105.8-151.8 1.3-14.8 6.4-29.4 14.6-43.4h-1345.9v457.3c98.5 35.4 176.5 96.8 227 161.5 73.2 93.9 104.4 198.2 169.2 294.4 22.1 32.7 48.9 65.2 90.9 89.4 42 24.1 102 38.8 157.7 30.4 53.8-8.1 95.3-36.6 114.1-68.7 18.8-32.2 17.5-67.6 8.8-101.3-27.7-107.5-126.2-202.3-186.4-304.5-60.3-102.3-74.4-229.1 46.3-308.4 64.8-42.7 163.6-64.7 257.6-57.4 123.1 9.5 224.8 64.7 298.4 126.4 73.6 61.7 127.2 131.9 203.7 192.1 70 55.2 184.6 104.5 290.2 78.9 85.3-20.8 125.9-85.7 109.6-141.4-16.2-55.7-76.7-102.7-144.1-141.1z"/>
			</g>
			<g id="&lt;Group&gt;">
				<path id="&lt;Path&gt;" class="s10" d="m2051.1 489.3c-19.7-67.8-93.3-124.9-175.2-171.5-81.9-46.7-174.5-86.2-250.3-136.7-75.7-50.4-134.9-115.7-128.6-184.4 0.3-3.4 0.8-6.9 1.4-10.3h-1508.1v566.2c67.9 40.6 123.6 91.1 164.4 143.5 89 114.1 127 240.8 205.8 357.8 26.8 39.7 59.3 79.2 110.4 108.6 51.1 29.4 124 47.2 191.7 37 65.4-9.9 115.9-44.5 138.7-83.6 22.8-39 21.3-82 10.7-123.1-33.7-130.6-153.4-245.8-226.6-370.1-73.3-124.2-90.4-278.5 56.3-374.9 78.8-51.8 198.8-78.5 313.1-69.7 149.6 11.6 273.3 78.7 362.7 153.6 89.4 75 154.6 160.3 247.6 233.6 85.1 67 224.4 127 352.8 95.8 103.7-25.2 152.9-104.1 133.2-171.8z"/>
			</g>
			<g id="&lt;Group&gt;">
				<g id="&lt;Group&gt;">
				</g>
			</g>
			<path id="&lt;Path&gt;" class="s11" d="m733.6 1460.8c-47.3 0-85.6-38.3-85.6-85.6 0-47.4 38.3-85.6 85.6-85.6 47.4 0 85.6 38.2 85.6 85.6 0 47.3-38.2 85.6-85.6 85.6z"/>
			<path id="&lt;Path&gt;" class="s12" d="m2083.6 328.4c-47.4 0-85.6-38.3-85.6-85.6 0-47.4 38.2-85.6 85.6-85.6 47.3 0 85.6 38.2 85.6 85.6 0 47.3-38.3 85.6-85.6 85.6z"/>
			<path id="&lt;Path&gt;" class="s13" d="m2141 1350c-14.8 14.8-38.8 14.8-53.7 0-14.8-14.8-14.8-38.9 0-53.7 14.9-14.8 38.9-14.8 53.7 0 14.8 14.8 14.8 38.9 0 53.7z"/>
		</g>
	</g>
</svg>